<svg xmlns="http://www.w3.org/2000/svg" viewBox="0 0 800 520" width="800" height="520" role="img" aria-label="Foutbank · Leerwetenskap: Spasieer: herhaal net voor jy vergeet" font-family="Arial, Helvetica, sans-serif">
<defs></defs>
<rect width="800" height="520" rx="18" fill="#071d11"/>
<rect width="800" height="72" rx="18" fill="#5cc8ff"/><rect y="50" width="800" height="22" fill="#5cc8ff"/>
<text x="24" y="27" font-size="15" fill="#04140b" font-weight="800" letter-spacing="2">FOUTBANK · LEERWETENSKAP</text>
<text x="24" y="60" font-size="29" fill="#04140b" font-weight="900">Spasieer: herhaal net voor jy vergeet</text>

    <line x1="80" y1="430" x2="744" y2="430" stroke="#f6f8f3" stroke-width="3"/><line x1="80" y1="130" x2="80" y2="430" stroke="#f6f8f3" stroke-width="3"/>
    <text x="70" y="140" font-size="14" fill="#b9d0c0" font-weight="700" text-anchor="end">100%</text><text x="70" y="434" font-size="14" fill="#b9d0c0" font-weight="700" text-anchor="end">0%</text>
    <text x="80" y="456" font-size="15" fill="#b9d0c0" font-weight="700" text-anchor="middle">dag 0</text><text x="172" y="456" font-size="15" fill="#b9d0c0" font-weight="700" text-anchor="middle">dag 1</text><text x="264" y="456" font-size="15" fill="#b9d0c0" font-weight="700" text-anchor="middle">dag 2</text><text x="356" y="456" font-size="15" fill="#b9d0c0" font-weight="700" text-anchor="middle">dag 3</text><text x="448" y="456" font-size="15" fill="#b9d0c0" font-weight="700" text-anchor="middle">dag 4</text><text x="540" y="456" font-size="15" fill="#b9d0c0" font-weight="700" text-anchor="middle">dag 5</text><text x="632" y="456" font-size="15" fill="#b9d0c0" font-weight="700" text-anchor="middle">dag 6</text><text x="724" y="456" font-size="15" fill="#b9d0c0" font-weight="700" text-anchor="middle">dag 7</text>
    <path d="M80,140 Q110,372 724,406.8" fill="none" stroke="#ff6b57" stroke-width="4" stroke-linecap="round" stroke-dasharray="10 8"/>
    <text x="448" y="408.4" font-size="16" fill="#ff6b57" font-weight="700" text-anchor="middle">maraton een keer → vergeet</text>
    <path d="M80,140 Q98,299.5 172,299.5" fill="none" stroke="#3ddc84" stroke-width="5" stroke-linecap="round"/>
    <line x1="172" y1="299.5" x2="172" y2="140" stroke="#3ddc84" stroke-width="5"/>
    <path d="M172,140 Q190,250.20000000000002 356,250.20000000000002" fill="none" stroke="#3ddc84" stroke-width="5" stroke-linecap="round"/>
    <line x1="356" y1="250.20000000000002" x2="356" y2="140" stroke="#3ddc84" stroke-width="5"/>
    <path d="M356,140 Q374,192.20000000000002 724,192.20000000000002" fill="none" stroke="#3ddc84" stroke-width="5" stroke-linecap="round"/>
    <circle cx="172" cy="140" r="10" fill="#f2c94c" stroke="#fff" stroke-width="2"/><circle cx="356" cy="140" r="10" fill="#f2c94c" stroke="#fff" stroke-width="2"/>
    <circle cx="80" cy="140" r="10" fill="#f2c94c" stroke="#fff" stroke-width="2"/>
    <text x="94" y="126" font-size="16" fill="#f2c94c" font-weight="700">leer</text>
    <text x="172" y="124" font-size="16" fill="#f2c94c" font-weight="700" text-anchor="middle">hertoets</text>
    <text x="356" y="124" font-size="16" fill="#f2c94c" font-weight="700" text-anchor="middle">hertoets</text>
    <text x="720" y="178.20000000000002" font-size="18" fill="#3ddc84" font-weight="900" text-anchor="end">onthou!</text>
    <rect x="24" y="470" width="752" height="40" rx="10" fill="#f2c94c"/>
    <text x="400" y="497" font-size="20" fill="#10140f" font-weight="900" text-anchor="middle">Fout vandag → hertoets môre → weer oor 3 dae</text>
</svg>
