<svg xmlns="http://www.w3.org/2000/svg" viewBox="0 0 800 520" width="800" height="520" role="img" aria-label="Gasvryheidstudie · Kos- &amp; drankdiens: Formele tafeldekking (bo-aansig)" font-family="Arial, Helvetica, sans-serif">
<defs></defs>
<rect width="800" height="520" rx="18" fill="#071d11"/>
<rect width="800" height="72" rx="18" fill="#d4472f"/><rect y="50" width="800" height="22" fill="#d4472f"/>
<text x="24" y="27" font-size="15" fill="#ffffff" font-weight="800" letter-spacing="2">GASVRYHEIDSTUDIE · KOS- &amp; DRANKDIENS</text>
<text x="24" y="60" font-size="29" fill="#ffffff" font-weight="900">Formele tafeldekking (bo-aansig)</text>

    <rect x="150" y="96" width="500" height="340" rx="18" fill="#1d4a30"/>
    <circle cx="400" cy="318" r="84" fill="#f4f6f2"/><circle cx="400" cy="318" r="60" fill="#e3e9e2"/>
    <path d="M372,300 L428,300 L400,346 Z" fill="#ff6b57"/>
    <rect x="294" y="264" width="8" height="128" rx="4" fill="#dfe6df"/>
     <rect x="289" y="258" width="18" height="10" rx="3" fill="#dfe6df"/>
     <rect x="289.5" y="238" width="3" height="24" fill="#dfe6df"/><rect x="296.5" y="238" width="3" height="24" fill="#dfe6df"/><rect x="303.5" y="238" width="3" height="24" fill="#dfe6df"/><rect x="266" y="264" width="8" height="128" rx="4" fill="#dfe6df"/>
     <rect x="261" y="258" width="18" height="10" rx="3" fill="#dfe6df"/>
     <rect x="261.5" y="238" width="3" height="24" fill="#dfe6df"/><rect x="268.5" y="238" width="3" height="24" fill="#dfe6df"/><rect x="275.5" y="238" width="3" height="24" fill="#dfe6df"/>
    <rect x="500" y="298" width="8" height="94" rx="4" fill="#dfe6df"/>
     <path d="M499,300 L499,244 Q511,252 510,300 Z" fill="#dfe6df"/><rect x="526" y="298" width="8" height="94" rx="4" fill="#dfe6df"/>
     <path d="M525,300 L525,244 Q537,252 536,300 Z" fill="#dfe6df"/><ellipse cx="560" cy="256" rx="11" ry="18" fill="#dfe6df"/><rect x="556.5" y="270" width="7" height="122" rx="3.5" fill="#dfe6df"/>
    <ellipse cx="338" cy="206" rx="14" ry="9" fill="#dfe6df"/><rect x="350" y="203" width="120" height="6" rx="3" fill="#dfe6df"/>
    <rect x="330" y="182" width="112" height="6" rx="3" fill="#dfe6df"/>
    <rect x="440" y="176" width="22" height="3" fill="#dfe6df"/><rect x="440" y="182" width="22" height="3" fill="#dfe6df"/><rect x="440" y="188" width="22" height="3" fill="#dfe6df"/>
    <circle cx="214" cy="222" r="40" fill="#f4f6f2"/><rect x="186" y="219" width="58" height="6" rx="3" fill="#9aa59a"/>
    <circle cx="512" cy="168" r="20" fill="none" stroke="#5cc8ff" stroke-width="5"/><circle cx="560" cy="186" r="17" fill="none" stroke="#c9a2ff" stroke-width="5"/>
    <line x1="150" y1="222" x2="172" y2="222" stroke="#f2c94c" stroke-width="2"/><text x="142" y="214" font-size="17" fill="#f2c94c" font-weight="700" text-anchor="end"><tspan x="142" dy="0">Kleinbord +</tspan><tspan x="142" dy="20">bottermes</tspan></text>
    <line x1="150" y1="330" x2="262" y2="330" stroke="#f2c94c" stroke-width="2"/><text x="142" y="322" font-size="17" fill="#f2c94c" font-weight="700" text-anchor="end"><tspan x="142" dy="0">Vurke links:</tspan><tspan x="142" dy="20">buitenste =</tspan><tspan x="142" dy="20">eerste gang</tspan></text>
    <line x1="572" y1="330" x2="650" y2="330" stroke="#f2c94c" stroke-width="2"/><text x="658" y="322" font-size="17" fill="#f2c94c" font-weight="700" text-anchor="start"><tspan x="658" dy="0">Messe regs,</tspan><tspan x="658" dy="20">lem na bord;</tspan><tspan x="658" dy="20">soplepel buite</tspan></text>
    <line x1="578" y1="178" x2="650" y2="150" stroke="#f2c94c" stroke-width="2"/><text x="658" y="146" font-size="17" fill="#f2c94c" font-weight="700" text-anchor="start"><tspan x="658" dy="0">Glase bo</tspan><tspan x="658" dy="20">die hoofmes</tspan></text>
    <line x1="400" y1="178" x2="400" y2="120" stroke="#f2c94c" stroke-width="2"/><text x="400" y="116" font-size="17" fill="#f2c94c" font-weight="700" text-anchor="middle">Nagereg-lepel &amp; -vurk bo die bord</text>
    <rect x="30" y="450" width="740" height="52" rx="14" fill="#f2c94c"/>
    <text x="400" y="484" font-size="22" fill="#10140f" font-weight="900" text-anchor="middle">Reël: werk van BUITE na BINNE — een stel per gang</text>
</svg>
